<?xml version="1.0" encoding="UTF-8" standalone="no"?>
<!-- Created with Inkscape (http://www.inkscape.org/) -->

<svg
   width="300mm"
   height="37.879604mm"
   viewBox="0 0 300 37.879604"
   version="1.1"
   id="svg1"
   sodipodi:docname="macOS Sequoia.svg"
   inkscape:version="1.3.2 (091e20e, 2023-11-25, custom)"
   xmlns:inkscape="http://www.inkscape.org/namespaces/inkscape"
   xmlns:sodipodi="http://sodipodi.sourceforge.net/DTD/sodipodi-0.dtd"
   xmlns="http://www.w3.org/2000/svg"
   xmlns:svg="http://www.w3.org/2000/svg">
  <sodipodi:namedview
     id="namedview1"
     pagecolor="#505050"
     bordercolor="#eeeeee"
     borderopacity="1"
     inkscape:showpageshadow="0"
     inkscape:pageopacity="0"
     inkscape:pagecheckerboard="0"
     inkscape:deskcolor="#505050"
     inkscape:document-units="mm"
     inkscape:zoom="3.9660278"
     inkscape:cx="206.62992"
     inkscape:cy="2.6474852"
     inkscape:window-width="1920"
     inkscape:window-height="1001"
     inkscape:window-x="-9"
     inkscape:window-y="-9"
     inkscape:window-maximized="1"
     inkscape:current-layer="layer1" />
  <defs
     id="defs1" />
  <g
     inkscape:label="Ebene 1"
     inkscape:groupmode="layer"
     id="layer1"
     transform="translate(-33.736754,-88.181225)">
    <path
       d="M 33.736754,118.83583 V 96.954422 h 5.140067 v 3.509278 h 0.103221 q 0.681215,-1.795923 2.291353,-2.869352 1.610142,-1.094069 3.777641,-1.094069 2.291356,0 3.880854,1.155998 1.589497,1.155999 2.188139,3.261573 h 0.123874 q 0.784429,-2.043645 2.600998,-3.220288 1.837213,-1.197283 4.211139,-1.197283 3.220284,0 5.181352,2.023 1.961071,2.002351 1.961071,5.284561 v 15.02799 H 60.056397 V 105.0877 q 0,-2.023 -1.011501,-3.13771 -1.0115,-1.11471 -2.910638,-1.11471 -1.857858,0 -3.013857,1.25921 -1.155998,1.23857 -1.155998,3.22028 v 13.52106 H 46.96881 v -14.01649 q 0,-1.83721 -1.052784,-2.91064 -1.032141,-1.07342 -2.828066,-1.07342 -1.857858,0 -3.034501,1.30049 -1.176638,1.3005 -1.176638,3.30286 v 13.3972 z m 42.46215,0.37158 q -3.282209,0 -5.305209,-1.83721 -2.022997,-1.83722 -2.022997,-4.7685 v -0.0413 q 0,-2.91065 2.167499,-4.60336 2.167499,-1.69271 6.151563,-1.94042 l 5.718068,-0.35093 v -1.50693 q 0,-1.65143 -1.052785,-2.601 -1.032141,-0.94957 -2.993212,-0.94957 -1.816569,0 -2.910639,0.76379 -1.09407,0.76378 -1.341786,1.98171 l -0.04126,0.18579 h -4.768497 l 0.02077,-0.24771 q 0.227056,-2.91064 2.642283,-4.851064 2.415211,-1.940427 6.585066,-1.940427 4.107925,0 6.543781,2.002356 2.456495,1.981715 2.456495,5.284565 v 15.04863 h -5.140066 v -3.36478 h -0.123874 q -0.949568,1.71335 -2.683568,2.72485 -1.733999,1.0115 -3.901498,1.0115 z m -2.208783,-6.81214 q 0,1.34179 1.0115,2.12621 1.03214,0.76379 2.724856,0.76379 2.229423,0 3.695067,-1.3005 1.486284,-1.3005 1.486284,-3.26157 v -1.65142 l -4.995568,0.30962 q -1.899139,0.12388 -2.910639,0.90829 -1.0115,0.78443 -1.0115,2.08492 z m 28.280529,6.87407 q -3.261572,0 -5.635498,-1.38307 -2.353281,-1.38307 -3.653782,-3.94278 -1.279853,-2.55972 -1.279853,-6.069 v -0.0208 q 0,-3.48864 1.300497,-6.02771 1.300501,-2.559715 3.653783,-3.942785 2.373926,-1.38307 5.552923,-1.38307 2.89,0 4.99557,1.094069 2.10557,1.094074 3.30285,2.931286 1.19729,1.81657 1.36243,4.00471 l 0.0208,0.16514 h -4.85107 l -0.0413,-0.18579 q -0.30963,-1.5895 -1.50693,-2.70421 -1.17664,-1.13536 -3.22029,-1.13536 -2.43585,0 -3.880846,1.94043 -1.444999,1.91978 -1.444999,5.28456 v 0.0208 q 0,3.42671 1.444999,5.32585 1.46564,1.87849 3.901496,1.87849 1.96107,0 3.15835,-1.05278 1.21793,-1.07343 1.56886,-2.78678 l 0.0413,-0.18579 h 4.85106 l -0.0208,0.14448 q -0.18579,2.27072 -1.42436,4.10793 -1.23857,1.81657 -3.34414,2.86935 -2.08493,1.05278 -4.85107,1.05278 z m 26.77359,0.0826 q -4.35563,0 -7.53463,-1.8785 -3.15835,-1.8785 -4.89235,-5.32586 -1.71336,-3.46799 -1.71336,-8.1952 v -0.0413 q 0,-4.727206 1.71336,-8.174562 1.734,-3.447355 4.91299,-5.325853 3.179,-1.878498 7.51399,-1.878498 4.335,0 7.514,1.878498 3.179,1.878498 4.89235,5.325853 1.71336,3.447356 1.71336,8.174562 v 0.0413 q 0,4.72721 -1.71336,8.1952 -1.71335,3.44736 -4.89235,5.32586 -3.15835,1.8785 -7.514,1.8785 z m 0,-4.624 q 4.046,0 6.37864,-2.91064 2.33264,-2.93128 2.33264,-7.86492 v -0.0413 q 0,-4.954278 -2.37392,-7.844276 -2.35329,-2.910639 -6.33736,-2.910639 -3.98406,0 -6.35799,2.889994 -2.35328,2.889999 -2.35328,7.864921 v 0.0413 q 0,4.97492 2.35328,7.88556 2.35329,2.89 6.35799,2.89 z m 29.25074,4.624 q -5.14006,0 -8.27778,-2.27072 -3.13771,-2.27071 -3.40606,-6.29606 l -0.0208,-0.30967 h 5.09878 l 0.0413,0.24771 q 0.28901,1.91978 2.10557,3.0345 1.83721,1.11471 4.64464,1.11471 2.80742,0 4.45885,-1.156 1.65143,-1.156 1.65143,-3.07578 v -0.0208 q 0,-1.67208 -1.25921,-2.64229 -1.23857,-0.97021 -4.12857,-1.5895 l -3.19964,-0.66057 q -8.75257,-1.79592 -8.75257,-8.38099 v -0.02077 q 0.0208,-2.621638 1.42436,-4.603354 1.42436,-1.981712 3.9015,-3.075781 2.49778,-1.114714 5.71806,-1.114714 3.26157,0 5.67678,1.073429 2.43586,1.073425 3.81893,2.993212 1.40371,1.919783 1.56886,4.458852 l 0.0208,0.35093 h -5.09877 l -0.0413,-0.247708 q -0.26836,-1.940428 -1.8785,-3.034497 -1.61014,-1.114714 -4.10793,-1.114714 -2.60099,0 -4.12856,1.135358 -1.52757,1.114714 -1.52757,2.889995 v 0.02077 q 0,1.568857 1.25921,2.559713 1.27986,0.970209 3.96343,1.527569 l 3.22028,0.66057 q 4.64464,0.97022 6.77085,2.97257 2.12621,1.98171 2.12621,5.47035 v 0.0208 q 0,4.16985 -3.09642,6.62635 -3.09643,2.4565 -8.54614,2.4565 z m 35.42278,0 q -5.14006,0 -8.27778,-2.27072 -3.13771,-2.27071 -3.40606,-6.29606 l -0.0208,-0.30967 h 5.09879 l 0.0413,0.24771 q 0.28901,1.91978 2.10557,3.0345 1.83721,1.11471 4.64464,1.11471 2.80743,0 4.45885,-1.156 1.65143,-1.156 1.65143,-3.07578 v -0.0208 q 0,-1.67208 -1.25921,-2.64229 -1.23857,-0.97021 -4.12857,-1.5895 l -3.19964,-0.66057 q -8.75257,-1.79592 -8.75257,-8.38099 v -0.02077 q 0.0208,-2.621638 1.42436,-4.603354 1.42436,-1.981712 3.9015,-3.075781 2.49778,-1.114714 5.71807,-1.114714 3.26156,0 5.67678,1.073429 2.43585,1.073425 3.81892,2.993212 1.40372,1.919783 1.56886,4.458852 l 0.0208,0.35093 h -5.09878 l -0.0413,-0.247708 q -0.26836,-1.940428 -1.8785,-3.034497 -1.61014,-1.114714 -4.10792,-1.114714 -2.601,0 -4.12857,1.135358 -1.52757,1.114714 -1.52757,2.889995 v 0.02077 q 0,1.568857 1.25921,2.559713 1.27986,0.970209 3.96342,1.527569 l 3.22029,0.66057 q 4.64464,0.97022 6.77085,2.97257 2.12621,1.98171 2.12621,5.47035 v 0.0208 q 0,4.16985 -3.09642,6.62635 -3.09643,2.4565 -8.54614,2.4565 z m 25.16347,-0.0826 q -4.93364,0 -7.74107,-3.05514 -2.78678,-3.05514 -2.78678,-8.25714 v -0.0208 q 0,-3.44735 1.25922,-6.00706 1.27985,-2.580358 3.5712,-4.004716 2.312,-1.424355 5.44972,-1.424355 3.13771,0 5.40842,1.38307 2.27071,1.36243 3.48864,3.839571 1.23857,2.47714 1.23857,5.77999 v 1.65143 h -15.31699 q 0.0619,2.89 1.54821,4.50014 1.48629,1.61014 3.98407,1.61014 1.91979,0 3.13772,-0.867 1.21792,-0.867 1.58949,-1.96107 l 0.0413,-0.14449 h 4.80978 l -0.0619,0.22706 q -0.35093,1.67207 -1.54821,3.24092 -1.17664,1.54822 -3.19964,2.53907 -2.023,0.97021 -4.87171,0.97021 z m -0.18579,-18.7437 q -2.04365,0 -3.468,1.34178 -1.40371,1.32115 -1.71336,3.86021 h 10.25949 q -0.28901,-2.60099 -1.67207,-3.90149 -1.36242,-1.3005 -3.40606,-1.3005 z m 28.85852,25.53519 V 115.2027 h -0.10322 q -0.90828,1.85785 -2.70421,2.95193 -1.77529,1.09407 -4.12857,1.09407 -2.74549,0 -4.78914,-1.38307 -2.023,-1.38307 -3.13771,-3.92214 -1.09407,-2.55972 -1.09407,-6.069 v -0.0208 q 0,-5.24328 2.47714,-8.27778 2.47714,-3.034501 6.62635,-3.034501 2.312,0 4.046,1.155999 1.75464,1.135358 2.68357,3.034502 h 0.12387 v -3.777642 h 5.14007 V 126.0607 Z m -5.32585,-11.14713 q 2.39457,0 3.86021,-1.89914 1.48628,-1.91979 1.48628,-5.14007 v -0.0208 q 0,-3.19964 -1.48628,-5.07814 -1.48629,-1.89914 -3.86021,-1.89914 -2.47714,0 -3.94279,1.8785 -1.445,1.87849 -1.445,5.09878 v 0.0208 q 0,3.26157 1.445,5.16071 1.46565,1.8785 3.94279,1.8785 z m 22.54181,4.35564 q -3.6125,0 -5.59421,-2.1675 -1.96107,-2.18814 -1.96107,-6.00707 V 96.95443 h 5.14006 v 13.12885 q 0,2.33263 1.07343,3.59185 1.09407,1.25921 3.30285,1.25921 2.20879,0 3.50929,-1.46564 1.32114,-1.46564 1.32114,-3.83957 v -12.6747 h 5.14007 v 21.88141 h -5.14007 v -3.42671 h -0.10322 q -0.84636,1.75464 -2.53907,2.80743 -1.67207,1.05278 -4.14921,1.05278 z m 26.25752,0 q -3.22028,0 -5.61485,-1.36243 -2.37393,-1.38307 -3.67443,-3.92214 -1.30049,-2.55971 -1.30049,-6.08964 v -0.0413 q 0,-3.50929 1.32114,-6.04835 1.32114,-2.559713 3.69506,-3.922143 2.37393,-1.38307 5.55292,-1.38307 3.19965,0 5.57357,1.38307 2.39458,1.36243 3.71573,3.901503 1.32111,2.53906 1.32111,6.06899 v 0.0413 q 0,3.55057 -1.32111,6.11029 -1.3005,2.53906 -3.69509,3.90149 -2.37392,1.36243 -5.57356,1.36243 z m 0.0208,-4.14921 q 2.43586,0 3.88086,-1.89914 1.44499,-1.89915 1.44499,-5.32586 v -0.0413 q 0,-3.40607 -1.46564,-5.28457 -1.46564,-1.89914 -3.9015,-1.89914 -2.39456,0 -3.86021,1.89914 -1.46564,1.8785 -1.46564,5.28457 v 0.0413 q 0,3.44736 1.445,5.3465 1.46564,1.8785 3.92214,1.8785 z m 17.03018,-21.303411 q -1.21793,0 -2.04367,-0.825713 -0.82569,-0.825713 -0.82569,-1.981716 0,-1.176638 0.82569,-2.002352 0.82574,-0.825713 2.04367,-0.825713 1.19727,0 2.023,0.825713 0.8257,0.825714 0.8257,2.002352 0,1.156003 -0.8257,1.981716 -0.82573,0.825713 -2.023,0.825713 z m -2.58035,25.019121 V 96.95443 h 5.14003 v 21.88141 z m 16.39028,0.37158 q -3.28225,0 -5.30521,-1.83721 -2.02301,-1.83722 -2.02301,-4.7685 v -0.0413 q 0,-2.91064 2.16749,-4.60335 2.1675,-1.69271 6.15156,-1.94043 l 5.71805,-0.35093 v -1.50692 q 0,-1.65143 -1.05275,-2.601 -1.03217,-0.94957 -2.99322,-0.94957 -1.81657,0 -2.91066,0.76378 -1.09406,0.76379 -1.34176,1.98172 l -0.0412,0.18579 h -4.76849 l 0.02,-0.24771 q 0.22689,-2.91064 2.64229,-4.851066 2.41521,-1.940427 6.58506,-1.940427 4.10793,0 6.54379,2.002356 2.45646,1.981707 2.45646,5.284567 v 15.04863 h -5.14007 v -3.36478 h -0.12383 q -0.94957,1.71335 -2.68356,2.72485 -1.734,1.0115 -3.90149,1.0115 z m -2.2088,-6.81214 q 0,1.34179 1.01148,2.12621 1.03214,0.76379 2.72487,0.76379 2.22941,0 3.69508,-1.3005 1.48625,-1.3005 1.48625,-3.26157 v -1.65143 l -4.99554,0.30963 q -1.89914,0.12387 -2.91066,0.90829 -1.01148,0.78442 -1.01148,2.08492 z"
       id="text1"
       style="font-weight:600;font-size:10.5833px;font-family:'SF Pro Display';-inkscape-font-specification:'SF Pro Display Semi-Bold';letter-spacing:0.108479px;word-spacing:0px;fill:#010103;stroke-width:6.3415;stroke-linecap:round;stroke-linejoin:round;stroke-miterlimit:4.5;paint-order:stroke fill markers"
       aria-label="macOS Sequoia" />
  </g>
</svg>
